<?xml version="1.0" encoding="UTF-8"?><svg id="Layer_2" xmlns="http://www.w3.org/2000/svg" xmlns:xlink="http://www.w3.org/1999/xlink" viewBox="0 0 597.68 201.8"><defs><style>.cls-1{fill:url(#linear-gradient-2);}.cls-2{fill:url(#linear-gradient-6);}.cls-3{fill:url(#linear-gradient-5);}.cls-4{fill:#4f4f4f;}.cls-5{fill:url(#linear-gradient-3);}.cls-6{fill:url(#linear-gradient);}.cls-7{fill:url(#linear-gradient-4);}</style><linearGradient id="linear-gradient" x1="-14.25" y1="97.58" x2="602.25" y2="36.05" gradientUnits="userSpaceOnUse"><stop offset="0" stop-color="#ff9303"/><stop offset=".53" stop-color="#ed1e79"/><stop offset="1" stop-color="#0071bc"/></linearGradient><linearGradient id="linear-gradient-2" x1="-15.13" y1="87.49" x2="601.21" y2="25.98" xlink:href="#linear-gradient"/><linearGradient id="linear-gradient-3" x1="-14.14" y1="98.81" x2="602.46" y2="37.27" xlink:href="#linear-gradient"/><linearGradient id="linear-gradient-4" x1="-8.69" y1="150.85" x2="607.69" y2="89.33" xlink:href="#linear-gradient"/><linearGradient id="linear-gradient-5" x1="-18.07" y1="60.2" x2="598.71" y2="-1.36" xlink:href="#linear-gradient"/><linearGradient id="linear-gradient-6" x1="-17.35" y1="67.44" x2="599.36" y2="5.89" xlink:href="#linear-gradient"/></defs><g id="Layer_2-2"><g><g><path class="cls-4" d="m3.66,178.97v-1.88h10.49v1.88h-4.27v17.28h-1.95v-17.28H3.66Z"/><path class="cls-4" d="m33.08,191.55l1.54.81c-.5.99-1.09,1.79-1.75,2.4-.66.61-1.4,1.07-2.23,1.39-.83.32-1.76.47-2.8.47-2.31,0-4.12-.76-5.42-2.27-1.3-1.51-1.95-3.23-1.95-5.14,0-1.8.55-3.4,1.66-4.8,1.4-1.79,3.27-2.68,5.62-2.68s4.34.92,5.79,2.75c1.03,1.29,1.55,2.91,1.56,4.84h-12.75c.03,1.65.56,3,1.58,4.05,1.02,1.05,2.27,1.58,3.77,1.58.72,0,1.42-.12,2.11-.38.68-.25,1.26-.58,1.74-1,.48-.42,1-1.09,1.55-2.01Zm0-3.81c-.24-.97-.6-1.75-1.06-2.33-.46-.58-1.08-1.05-1.85-1.41-.76-.36-1.57-.53-2.41-.53-1.39,0-2.59.45-3.58,1.34-.73.65-1.28,1.63-1.66,2.93h10.56Z"/><path class="cls-4" d="m56.77,185.03l-1.45.9c-1.25-1.66-2.95-2.49-5.11-2.49-1.73,0-3.16.56-4.3,1.67-1.14,1.11-1.71,2.46-1.71,4.05,0,1.03.26,2,.79,2.91s1.24,1.62,2.16,2.12c.91.5,1.94.76,3.08.76,2.08,0,3.78-.83,5.1-2.49l1.45.95c-.68,1.02-1.59,1.81-2.73,2.37-1.14.56-2.44.84-3.9.84-2.24,0-4.1-.71-5.57-2.14-1.48-1.42-2.21-3.16-2.21-5.2,0-1.37.34-2.65,1.03-3.82.69-1.18,1.64-2.09,2.85-2.76,1.21-.66,2.56-.99,4.05-.99.94,0,1.84.14,2.72.43.87.29,1.61.66,2.22,1.12.61.46,1.12,1.05,1.55,1.76Z"/><path class="cls-4" d="m64.81,176.61h1.82v8.01c.74-.97,1.55-1.7,2.44-2.18.89-.48,1.84-.72,2.88-.72s2,.27,2.82.81c.82.54,1.43,1.26,1.81,2.17.39.91.59,2.33.59,4.26v7.29h-1.82v-6.76c0-1.63-.07-2.72-.19-3.27-.23-.94-.64-1.64-1.23-2.12-.59-.47-1.37-.71-2.34-.71-1.1,0-2.09.36-2.96,1.09-.87.73-1.45,1.63-1.73,2.71-.17.69-.26,1.98-.26,3.85v5.2h-1.82v-19.64Z"/><path class="cls-4" d="m85.61,182.08h1.82v2.54c.73-.97,1.54-1.7,2.42-2.18.89-.48,1.85-.72,2.89-.72s2,.27,2.82.81c.82.54,1.43,1.26,1.82,2.17.39.91.59,2.33.59,4.26v7.29h-1.82v-6.76c0-1.63-.07-2.72-.2-3.27-.21-.94-.62-1.64-1.22-2.12-.6-.47-1.38-.71-2.34-.71-1.1,0-2.09.36-2.96,1.09-.87.73-1.45,1.63-1.72,2.71-.18.7-.26,1.99-.26,3.85v5.2h-1.82v-14.17Z"/><path class="cls-4" d="m113.11,181.72c2.18,0,3.99.79,5.43,2.37,1.3,1.44,1.96,3.15,1.96,5.12s-.69,3.71-2.07,5.19c-1.38,1.48-3.15,2.22-5.32,2.22s-3.95-.74-5.33-2.22c-1.38-1.48-2.07-3.21-2.07-5.19s.65-3.66,1.96-5.1c1.44-1.59,3.25-2.38,5.44-2.38Zm0,1.78c-1.52,0-2.82.56-3.91,1.68-1.09,1.12-1.63,2.47-1.63,4.06,0,1.02.25,1.98.75,2.86.5.89,1.17,1.57,2.01,2.05.84.48,1.77.72,2.78.72s1.94-.24,2.78-.72c.85-.48,1.51-1.17,2.01-2.05s.74-1.84.74-2.86c0-1.59-.55-2.94-1.64-4.06-1.09-1.12-2.39-1.68-3.9-1.68Z"/><path class="cls-4" d="m128.13,176.61h1.82v19.64h-1.82v-19.64Z"/><path class="cls-4" d="m144.98,181.72c2.18,0,3.99.79,5.43,2.37,1.3,1.44,1.96,3.15,1.96,5.12s-.69,3.71-2.07,5.19c-1.38,1.48-3.15,2.22-5.32,2.22s-3.95-.74-5.33-2.22c-1.38-1.48-2.07-3.21-2.07-5.19s.65-3.66,1.96-5.1c1.44-1.59,3.25-2.38,5.44-2.38Zm0,1.78c-1.52,0-2.82.56-3.91,1.68-1.09,1.12-1.63,2.47-1.63,4.06,0,1.02.25,1.98.74,2.86.5.89,1.17,1.57,2.01,2.05.85.48,1.77.72,2.78.72s1.94-.24,2.78-.72c.85-.48,1.52-1.17,2.01-2.05.5-.89.75-1.84.75-2.86,0-1.59-.55-2.94-1.64-4.06-1.09-1.12-2.39-1.68-3.9-1.68Z"/><path class="cls-4" d="m172.49,182.08h1.82v11.29c0,1.99-.17,3.44-.52,4.36-.48,1.3-1.31,2.3-2.49,3.01-1.18.7-2.6,1.06-4.26,1.06-1.22,0-2.31-.17-3.27-.52s-1.76-.8-2.36-1.38c-.61-.58-1.17-1.43-1.68-2.54h1.98c.54.94,1.23,1.63,2.09,2.08.85.45,1.91.68,3.17.68s2.29-.23,3.15-.69c.86-.46,1.47-1.05,1.83-1.75.37-.7.55-1.83.55-3.39v-.73c-.69.87-1.52,1.54-2.52,2-.99.46-2.04.7-3.15.7-1.3,0-2.53-.32-3.68-.97-1.15-.65-2.03-1.52-2.66-2.61-.63-1.09-.94-2.3-.94-3.61s.32-2.53.98-3.67,1.55-2.03,2.71-2.69c1.15-.66,2.37-.99,3.64-.99,1.06,0,2.05.22,2.96.66.92.44,1.8,1.16,2.65,2.17v-2.46Zm-5.38,1.39c-1.03,0-1.99.25-2.88.75-.89.5-1.58,1.19-2.08,2.07-.5.88-.76,1.83-.76,2.86,0,1.55.52,2.84,1.56,3.85s2.39,1.52,4.05,1.52,3.02-.5,4.04-1.51c1.02-1.01,1.53-2.33,1.53-3.97,0-1.07-.23-2.02-.7-2.86-.47-.84-1.13-1.5-1.99-1.99-.86-.49-1.78-.73-2.77-.73Z"/><path class="cls-4" d="m183.38,176.25c.41,0,.77.15,1.06.44.29.29.44.65.44,1.07s-.15.76-.44,1.06c-.29.3-.65.44-1.06.44s-.76-.15-1.05-.44c-.29-.29-.44-.65-.44-1.06s.15-.77.44-1.07c.29-.3.64-.44,1.05-.44Zm-.9,5.83h1.82v14.17h-1.82v-14.17Z"/><path class="cls-4" d="m204.55,191.55l1.54.81c-.5.99-1.09,1.79-1.75,2.4-.66.61-1.4,1.07-2.23,1.39-.83.32-1.76.47-2.8.47-2.31,0-4.12-.76-5.42-2.27-1.3-1.51-1.96-3.23-1.96-5.14,0-1.8.55-3.4,1.66-4.8,1.4-1.79,3.27-2.68,5.62-2.68s4.35.92,5.79,2.75c1.03,1.29,1.55,2.91,1.57,4.84h-12.75c.04,1.65.56,3,1.58,4.05,1.02,1.05,2.27,1.58,3.77,1.58.72,0,1.42-.12,2.11-.38.68-.25,1.26-.58,1.74-1,.48-.42,1-1.09,1.55-2.01Zm0-3.81c-.24-.97-.6-1.75-1.06-2.33-.47-.58-1.08-1.05-1.85-1.41-.76-.36-1.57-.53-2.41-.53-1.39,0-2.59.45-3.59,1.34-.73.65-1.28,1.63-1.66,2.93h10.56Z"/><path class="cls-4" d="m221.61,183.63l-1.17,1.21c-.98-.95-1.93-1.42-2.86-1.42-.59,0-1.1.2-1.52.59-.42.39-.63.85-.63,1.37,0,.46.18.9.52,1.32.35.42,1.08.92,2.19,1.5,1.36.7,2.28,1.38,2.77,2.03.48.66.72,1.4.72,2.23,0,1.17-.41,2.15-1.23,2.96s-1.84,1.21-3.07,1.21c-.82,0-1.6-.18-2.34-.53s-1.36-.85-1.85-1.47l1.15-1.3c.93,1.05,1.92,1.57,2.96,1.57.73,0,1.35-.23,1.87-.7.51-.47.77-1.02.77-1.65,0-.52-.17-.99-.51-1.39-.34-.4-1.1-.9-2.3-1.51-1.28-.66-2.15-1.31-2.61-1.95-.46-.64-.69-1.38-.69-2.2,0-1.07.37-1.97,1.1-2.68.73-.71,1.66-1.07,2.79-1.07,1.3,0,2.62.64,3.94,1.91Z"/><path class="cls-4" d="m253.5,177.09h3.81c2.19,0,3.67.1,4.43.29,1.09.27,1.99.82,2.68,1.66.69.84,1.04,1.89,1.04,3.16s-.34,2.33-1.02,3.16c-.68.83-1.61,1.39-2.8,1.67-.87.21-2.49.31-4.87.31h-1.37v8.91h-1.91v-19.15Zm1.91,1.88v6.5l3.24.04c1.31,0,2.27-.12,2.88-.36.61-.24,1.09-.62,1.43-1.16.35-.53.52-1.13.52-1.79s-.17-1.23-.52-1.76c-.35-.53-.81-.91-1.37-1.14-.57-.22-1.5-.34-2.79-.34h-3.39Z"/><path class="cls-4" d="m272.37,177.09h2.08l6.35,14.8,6.45-14.8h2.08l-8.33,19.15h-.42l-8.22-19.15Z"/><path class="cls-4" d="m295.18,178.97v-1.88h10.49v1.88h-4.27v17.28h-1.95v-17.28h-4.27Z"/><path class="cls-4" d="m336.81,177.09h1.92v17.31h7.37v1.85h-9.29v-19.15Z"/><path class="cls-4" d="m351.76,178.97v-1.88h10.49v1.88h-4.27v17.28h-1.95v-17.28h-4.27Z"/><path class="cls-4" d="m369.55,196.25v-19.15h3.97c2.86,0,4.95.23,6.24.69,1.86.65,3.31,1.78,4.36,3.39,1.05,1.61,1.57,3.52,1.57,5.74,0,1.92-.42,3.61-1.24,5.06-.83,1.46-1.91,2.54-3.23,3.23-1.32.7-3.18,1.04-5.57,1.04h-6.09Zm1.84-1.81h2.22c2.65,0,4.48-.16,5.51-.49,1.44-.47,2.57-1.31,3.4-2.53.83-1.22,1.24-2.71,1.24-4.47s-.45-3.43-1.34-4.73c-.89-1.31-2.14-2.21-3.74-2.69-1.2-.36-3.17-.55-5.92-.55h-1.35v15.47Z"/></g><g><path class="cls-6" d="m255.16,14.13c-5.35-5.03-10.68-8.64-15.99-10.84-5.31-2.2-10.96-3.29-16.95-3.29-12.79,0-23.81,4.52-33.04,13.56-10.18,9.99-15.28,23.23-15.28,39.72,0,15.4,4.81,28.13,14.42,38.19,9.61,10.06,21.39,15.09,35.33,15.09,6.37,0,12.06-1,17.09-3.01,5.03-2,9.83-5.3,14.42-9.88,0,8.4-.88,14.32-2.63,17.76-1.75,3.44-4.76,6.24-9.02,8.4-4.26,2.16-9.9,3.25-16.9,3.25-5.47,0-10.22-.75-14.23-2.24-4.01-1.5-7.29-3.71-9.83-6.64h-28.74c2.29,7.06,5.82,13.06,10.6,18,4.77,4.93,10.63,8.67,17.57,11.22,6.94,2.55,15.5,3.82,25.68,3.82,19.1,0,33.38-5.6,42.87-16.8,7.07-8.27,10.6-21.2,10.6-38.76V2.67h-25.97v11.46Zm-6.54,60.72c-5.25,5.41-11.92,8.12-20,8.12s-15.15-2.77-20.62-8.31c-5.47-5.54-8.21-12.63-8.21-21.29s2.67-15.26,8.02-20.77c5.35-5.51,12.13-8.26,20.34-8.26s15.15,2.71,20.43,8.12c5.28,5.41,7.92,12.44,7.92,21.1s-2.63,15.88-7.88,21.29Z"/><path class="cls-1" d="m333.36,4.01c-4.01,2.67-7.22,6.59-9.64,11.74V2.67h-22.34v103.88h25.87v-42.01l-.1-5.06c0-14.51,1.38-24.25,4.15-29.21,2.77-4.96,6.16-7.45,10.17-7.45,1.97,0,4.49.76,7.54,2.29l8.12-22.44c-3.69-1.78-7.22-2.67-10.6-2.67-4.77,0-9.17,1.34-13.18,4.01Z"/><path class="cls-5" d="m446.69,14.13c-4.65-4.71-9.7-8.24-15.16-10.6-5.47-2.35-11.31-3.53-17.54-3.53-13.54,0-25.05,5.12-34.52,15.37-9.48,10.25-14.21,23.39-14.21,39.43s4.89,28.4,14.69,38.81c9.79,10.41,21.39,15.61,34.8,15.61,5.98,0,11.53-1.07,16.64-3.2,5.12-2.13,10.22-5.62,15.31-10.45v10.98h26.06V2.67h-26.06v11.46Zm-6.95,62.68c-5.39,5.7-12.18,8.55-20.36,8.55s-14.61-2.9-20.03-8.69c-5.43-5.79-8.13-13.18-8.13-22.15s2.67-16.22,7.99-21.91c5.33-5.7,12.02-8.54,20.08-8.54s15.07,2.8,20.46,8.4c5.39,5.6,8.09,12.92,8.09,21.96s-2.7,16.69-8.09,22.39Z"/><polygon class="cls-7" points="570.96 2.67 541.19 67.85 514.21 2.67 487.57 2.67 527.06 98.8 481.83 197.85 488.19 197.85 508.76 197.85 597.68 2.67 570.96 2.67"/><path class="cls-3" d="m63.58,72.75c-1.46,4.01-3.72,7.05-6.75,9.12-3.03,2.07-6.72,3.1-11.05,3.1s-8-1.05-10.96-3.15c-2.97-2.1-5.12-5.04-6.46-8.83-1.34-3.79-2-10.55-2-20.29V2.67H0v43.25c0,16.61,1.02,28.07,3.06,34.37,2.86,9.1,7.81,16.2,14.85,21.29,7.03,5.09,16.25,7.64,27.64,7.64,10.5,0,19.16-2.18,25.97-6.54,6.48-4.15,11.41-10.06,14.89-17.63l-21.24-26.73c-.16,7.12-.68,11.95-1.58,14.42Z"/><path class="cls-2" d="m121.99,0c-5.02,0-9.93.98-14.73,2.92-4.78,1.94-10.11,5.39-15.99,10.33V2.67h-26.14v32.58l.08.1h0s8.09,10.17,8.09,10.17l17.9,22.52v-3.17c0-10.8.38-17.83,1.14-21.07,1.46-6.23,4.08-11.11,7.86-14.64,3.78-3.53,8.31-5.3,13.57-5.3,4.07,0,7.48,1.07,10.24,3.2,2.76,2.13,4.69,5.23,5.81,9.3,1.11,4.07,1.67,12.3,1.67,24.7v45.49h25.78V37.9c0-11.97-3.02-21-9.06-27.11-7.18-7.19-15.92-10.79-26.22-10.79Z"/></g><line class="cls-4" x1="396.95" y1="196.94" x2="485.39" y2="197.57"/></g></g></svg>